<svg xmlns="http://www.w3.org/2000/svg" viewBox="0 0 42 42"><defs><style>.cls-1{fill:none;}.cls-2{fill:#f2b705;}.cls-3{fill:#1e2a38;}</style></defs><g id="Layer_2" data-name="Layer 2"><g id="Layer_3" data-name="Layer 3"><path class="cls-1" d="M21,17.48a5.25,5.25,0,1,0-5.25-5.25A5.25,5.25,0,0,0,21,17.48Z"/><path class="cls-2" d="M16.72,25.19a6.13,6.13,0,0,0,8.56,0l4.38-4.28a12.24,12.24,0,0,0,0-17.32h0A12.25,12.25,0,1,0,12.35,20.92ZM21,7a5.25,5.25,0,1,1-5.25,5.25A5.25,5.25,0,0,1,21,7Z"/><path class="cls-3" d="M41.13,27.83l-8.49-5c-.16.18-.33.35-.5.53L27.73,27.7a9.66,9.66,0,0,1-13.46,0L9.9,23.43l-.54-.57-8.49,5A1.73,1.73,0,0,0,0,29.33a1.76,1.76,0,0,0,.85,1.51L18.11,41.2a5.62,5.62,0,0,0,5.78,0L41.15,30.84A1.75,1.75,0,0,0,42,29.33h0A1.75,1.75,0,0,0,41.13,27.83Z"/></g></g></svg>