<svg xmlns="http://www.w3.org/2000/svg" viewBox="0 0 42 42"><defs><style>.cls-1{fill:#f2f2f2;}.cls-2{fill:#163B63;}</style></defs><g id="Layer_2" data-name="Layer 2"><g id="Layer_3" data-name="Layer 3"><path class="cls-1" d="M40.47,17.27,36.7,13.5v-3a5.24,5.24,0,0,0-5.23-5.24h-3L24.7,1.48a5.37,5.37,0,0,0-7.4,0L13.53,5.25h-3A5.24,5.24,0,0,0,5.3,10.49v3L1.53,17.27a5.25,5.25,0,0,0,0,7.41l3.76,3.77v3a5.25,5.25,0,0,0,5.24,5.24h3l3.76,3.77a5.25,5.25,0,0,0,7.41,0l3.76-3.77h3a5.24,5.24,0,0,0,5.23-5.24v-3l3.77-3.77A5.27,5.27,0,0,0,40.47,17.27Z"/><path class="cls-2" d="M13,16.73H8.51a.34.34,0,0,0-.34.34v7.57a.35.35,0,0,0,.34.35H9.58a.35.35,0,0,0,.35-.35V22a.34.34,0,0,1,.34-.35h2a.35.35,0,0,0,.35-.34V20.5a.35.35,0,0,0-.35-.34h-2a.35.35,0,0,1-.34-.35V18.62a.35.35,0,0,1,.34-.35H13a.35.35,0,0,0,.35-.34v-.86A.35.35,0,0,0,13,16.73Z"/><path class="cls-2" d="M19.11,21.94a2.56,2.56,0,0,0,1.64-2.5A2.59,2.59,0,0,0,18,16.73H15a.35.35,0,0,0-.35.34v7.57A.35.35,0,0,0,15,25H16a.35.35,0,0,0,.35-.35V22.13h.39l1.75,2.7a.34.34,0,0,0,.29.16h1.92L19,22.46A.35.35,0,0,1,19.11,21.94ZM17.87,20.6H16.73a.35.35,0,0,1-.34-.35V18.62a.35.35,0,0,1,.34-.35h1.19a1.09,1.09,0,0,1,1,1.17A1.11,1.11,0,0,1,17.87,20.6Z"/><path class="cls-2" d="M27.26,23.44h-2.9A.34.34,0,0,1,24,23.1V22a.34.34,0,0,1,.34-.34h2.36a.35.35,0,0,0,.34-.35V20.5a.34.34,0,0,0-.34-.34H24.36a.35.35,0,0,1-.34-.35V18.62a.35.35,0,0,1,.34-.35h2.79a.35.35,0,0,0,.35-.34v-.86a.35.35,0,0,0-.35-.34H22.61a.34.34,0,0,0-.34.34v7.57a.35.35,0,0,0,.34.35h4.65a.35.35,0,0,0,.34-.35v-.85A.35.35,0,0,0,27.26,23.44Z"/><path class="cls-2" d="M34.17,23.44h-2.9a.34.34,0,0,1-.34-.34V22a.34.34,0,0,1,.34-.34h2.36a.35.35,0,0,0,.35-.35V20.5a.35.35,0,0,0-.35-.34H31.27a.35.35,0,0,1-.34-.35V18.62a.35.35,0,0,1,.34-.35h2.79a.35.35,0,0,0,.35-.34v-.86a.35.35,0,0,0-.35-.34H29.52a.34.34,0,0,0-.34.34v7.57a.35.35,0,0,0,.34.35h4.65a.35.35,0,0,0,.35-.35v-.85A.35.35,0,0,0,34.17,23.44Z"/></g></g></svg>