<svg xmlns="http://www.w3.org/2000/svg" viewBox="0 0 42 42"><defs><style>.cls-1{fill:#f2f2f2;}.cls-2{fill:#f2b705;}</style></defs><g id="Layer_2" data-name="Layer 2"><g id="Layer_3" data-name="Layer 3"><path class="cls-1" d="M31.42,29.72l-3,3.82a1.75,1.75,0,0,1-2.76-2.14l3.13-4a4,4,0,0,0,.42-4.54h0a3.88,3.88,0,0,0-6-.87l-4.21,3.95a10.52,10.52,0,0,0-3.3,7.65v6.69A1.75,1.75,0,0,0,17.52,42H30.6A3.47,3.47,0,0,0,33,41.07L36.12,38a14,14,0,0,0,4.14-9.42A12.27,12.27,0,0,1,35,29.72Z"/><path class="cls-2" d="M26.94,17.51A7.27,7.27,0,0,1,32.24,21a7,7,0,0,1,1,3.8V3.5h-3.5A5.26,5.26,0,0,0,24.5,8.75v8.86A7.39,7.39,0,0,1,26.94,17.51Z"/><path class="cls-2" d="M36.75,3.5V26.25A5.26,5.26,0,0,0,42,21V8.75A5.25,5.25,0,0,0,36.75,3.5Z"/><path class="cls-1" d="M21,19.32V8.75a8.67,8.67,0,0,1,2.43-6l-8-2.65a1.76,1.76,0,0,0-1.11,0l-9.12,3A7.59,7.59,0,0,0,0,10.31v7.55c0,8.7,8.24,14.35,12.26,16.58v-.87a14,14,0,0,1,4.41-10.2Z"/></g></g></svg>