<svg xmlns="http://www.w3.org/2000/svg" viewBox="0 0 33.02 42"><defs><style>.cls-1{fill:none;stroke:#1e2a38;stroke-linecap:round;stroke-linejoin:round;stroke-width:0;}.cls-2{fill:#f2b705;}.cls-3{fill:#1e2a38;}</style></defs><g id="Layer_2" data-name="Layer 2"><g id="Layer_3" data-name="Layer 3"><line class="cls-1" x1="21.53" y1="19.25" x2="21.53" y2="19.25"/><path class="cls-2" d="M3.46,14.36A13.14,13.14,0,0,1,17.27,3.53,13.42,13.42,0,0,1,29.51,17.3a5.58,5.58,0,0,1-5.61,5.45H19.69a3.49,3.49,0,1,0-.92,3.5H23.9A9.07,9.07,0,0,0,33,17.39C33.14,8.25,26.28.6,17.49,0A16.47,16.47,0,0,0,5,4.49a16.74,16.74,0,0,0-5,9.22,1.75,1.75,0,0,0,1.73,2h0A1.71,1.71,0,0,0,3.46,14.36Z"/><path class="cls-3" d="M16.39,29.75a14.39,14.39,0,0,0-13.92,10A1.75,1.75,0,0,0,4.14,42h24.5a1.75,1.75,0,0,0,1.67-2.27A14.38,14.38,0,0,0,16.39,29.75Z"/><path class="cls-3" d="M26,16.62A9.63,9.63,0,1,0,9.49,23.33a6.84,6.84,0,0,1,12-4.08h4.12A9.83,9.83,0,0,0,26,16.62Z"/></g></g></svg>