<svg xmlns="http://www.w3.org/2000/svg" viewBox="0 0 42 42"><defs><style>.cls-1{fill:#1e2a38;}.cls-2{fill:#f2b705;}</style></defs><g id="Layer_2" data-name="Layer 2"><g id="Layer_3" data-name="Layer 3"><path class="cls-1" d="M28,24V41a1,1,0,0,0,1,1h1.5a1,1,0,0,0,1-1V22.58a1,1,0,0,0-1.7-.7c-.48.48-1,.95-1.48,1.43A1,1,0,0,0,28,24Z"/><path class="cls-2" d="M10.5,21A10.5,10.5,0,1,0,0,10.51,10.51,10.51,0,0,0,10.5,21Zm0-15.75A2.63,2.63,0,1,1,7.87,7.89,2.63,2.63,0,0,1,10.5,5.26ZM5.25,14.89a2.62,2.62,0,0,1,2.62-2.63h5.25a2.62,2.62,0,0,1,2.62,2.63v.2a6.89,6.89,0,0,1-10.49,0Z"/><rect class="cls-1" x="36.74" y="14.01" width="3.5" height="27.99" rx="1"/><path class="cls-1" d="M20.24,42h1.5a1,1,0,0,0,1-1V29.73a1,1,0,0,0-1.54-.84c-.48.32-1,.63-1.48.94a1,1,0,0,0-.48.85V41A1,1,0,0,0,20.24,42Z"/><path class="cls-1" d="M2.75,42h1.5a1,1,0,0,0,1-1V37.62a1,1,0,0,0-1.28-1l-1.47.4a1,1,0,0,0-.75,1v3A1,1,0,0,0,2.75,42Z"/><path class="cls-1" d="M38.74,11.15,42,9.88,39,2.09A3.29,3.29,0,0,0,34.7.23l-7.78,3,1.27,3.26,5.55-2.16C31,10.63,21.6,25.13,0,30.48v3.61c23.21-5.42,33.38-20.5,36.75-28Z"/><path class="cls-1" d="M11.5,42H13a1,1,0,0,0,1-1V34.49a1,1,0,0,0-1.39-.92l-1.48.63a1,1,0,0,0-.62.92V41A1,1,0,0,0,11.5,42Z"/></g></g></svg>