<svg xmlns="http://www.w3.org/2000/svg" viewBox="0 0 35 42"><defs><style>.cls-1{fill:#f2b705;}.cls-2{fill:#1e2a38;}</style></defs><g id="Layer_2" data-name="Layer 2"><g id="Layer_3" data-name="Layer 3"><path class="cls-1" d="M19.25,31.5H10.5a1.75,1.75,0,0,0,0,3.5h8.75a1.75,1.75,0,0,0,0-3.5Z"/><path class="cls-1" d="M24.5,24.5h-14a1.75,1.75,0,0,0,0,3.5h14a1.75,1.75,0,0,0,0-3.5Z"/><path class="cls-2" d="M35,17.5H22.75a5.25,5.25,0,0,1-5.25-5.25V0c-.28,0-.56,0-.85,0H8.75A8.77,8.77,0,0,0,0,8.75v24.5A8.77,8.77,0,0,0,8.75,42h17.5A8.77,8.77,0,0,0,35,33.25V18.35C35,18.06,35,17.78,35,17.5ZM19.25,35H10.5a1.75,1.75,0,0,1,0-3.5h8.75a1.75,1.75,0,0,1,0,3.5Zm5.25-7h-14a1.75,1.75,0,0,1,0-3.5h14a1.75,1.75,0,0,1,0,3.5Z"/><path class="cls-2" d="M22.75,14H34.2a12.32,12.32,0,0,0-2.79-4.31l-6.1-6.1A12.18,12.18,0,0,0,21,.8V12.25A1.75,1.75,0,0,0,22.75,14Z"/></g></g></svg>