<svg xmlns="http://www.w3.org/2000/svg" viewBox="0 0 41.99 42"><defs><style>.cls-1{fill:#f2b705;}</style></defs><g id="Layer_2" data-name="Layer 2"><g id="Layer_3" data-name="Layer 3"><path class="cls-1" d="M42,10.93C42,24.3,24.27,42,10.92,42a10.75,10.75,0,0,1-7.66-3.11l-1.75-2A5.38,5.38,0,0,1,1.6,29.3c0-.05,4.27-3.29,4.27-3.29a5.44,5.44,0,0,1,7.49,0l2.55,2A22.37,22.37,0,0,0,28,15.9l-2-2.56a5.39,5.39,0,0,1,0-7.48s3.24-4.22,3.29-4.27a5.42,5.42,0,0,1,7.67,0l1.83,1.59A10.74,10.74,0,0,1,42,10.91Z"/></g></g></svg>