<svg xmlns="http://www.w3.org/2000/svg" viewBox="0 0 45 36.75"><defs><style>.cls-1{fill:#1e2a38;}.cls-2{fill:#f2b705;}.cls-3{fill:#fff;}</style></defs><g id="Layer_2" data-name="Layer 2"><g id="Layer_3" data-name="Layer 3"><path class="cls-1" d="M26.35,0a1.72,1.72,0,0,0-1.84,1.56C24.2,4.38,23,7,16.63,7H7a7,7,0,0,0-7,7v1.75a7,7,0,0,0,7,7h9.63c6.39,0,7.57,2.62,7.88,5.44a1.75,1.75,0,0,0,1.74,1.56h.1A1.75,1.75,0,0,0,28,28V1.75A1.75,1.75,0,0,0,26.35,0Z"/><path class="cls-1" d="M15.38,26.25H7a10.05,10.05,0,0,1-1.56-.13l3.53,8a4.5,4.5,0,0,0,8.24-3.63Z"/><path class="cls-2" d="M31.52,22.35a3.25,3.25,0,0,1-2.3-5.55,2.73,2.73,0,0,0,0-3.85,3.25,3.25,0,0,1,4.6-4.6,9.26,9.26,0,0,1,0,13.05A3.25,3.25,0,0,1,31.52,22.35Z"/><path class="cls-3" d="M31.52,8.9a1.73,1.73,0,0,1,1.23.51,7.73,7.73,0,0,1,0,10.93,1.73,1.73,0,0,1-1.23.51,1.75,1.75,0,0,1-1.24-3,4.22,4.22,0,0,0,0-6,1.75,1.75,0,0,1,1.24-3m0-3A4.75,4.75,0,0,0,28.16,14a1.22,1.22,0,0,1,.36.86,1.24,1.24,0,0,1-.36.87,4.75,4.75,0,0,0,6.72,6.72,10.76,10.76,0,0,0,0-15.17A4.71,4.71,0,0,0,31.52,5.9Z"/><path class="cls-2" d="M36.66,26.79a3.25,3.25,0,0,1-2.29-5.55,9,9,0,0,0,0-12.73A3.25,3.25,0,0,1,39,3.91a15.5,15.5,0,0,1,0,21.92A3.21,3.21,0,0,1,36.66,26.79Z"/><path class="cls-3" d="M36.66,4.46A1.75,1.75,0,0,1,37.9,5a14,14,0,0,1,0,19.8,1.72,1.72,0,0,1-1.24.52,1.7,1.7,0,0,1-1.23-.52,1.73,1.73,0,0,1,0-2.47,10.51,10.51,0,0,0,0-14.85,1.74,1.74,0,0,1,0-2.48,1.73,1.73,0,0,1,1.23-.51m0-3A4.75,4.75,0,0,0,33.3,9.57a7.5,7.5,0,0,1,0,10.61A4.75,4.75,0,0,0,40,26.9a17,17,0,0,0,0-24,4.75,4.75,0,0,0-3.36-1.39Z"/></g></g></svg>