<svg xmlns="http://www.w3.org/2000/svg" viewBox="0 0 64 64"><defs><style>.cls-1{fill:#f3f6fa;}.cls-2{fill:#f2b705;}.cls-3{fill:#1e2a38;}</style></defs><g id="Layer_2" data-name="Layer 2"><g id="Layer_2-2" data-name="Layer 2"><rect class="cls-1" width="64" height="64" rx="16"/><path class="cls-2" d="M15.54,25.74a3.5,3.5,0,0,0,4.9,0l4-3.87A1.75,1.75,0,0,0,22,19.36l-2.29,2.19V18a3.5,3.5,0,0,1,3.5-3.5H25A1.75,1.75,0,0,0,25,11H23.25a7,7,0,0,0-7,7v3.56L14,19.36a1.75,1.75,0,0,0-2.42,2.53Z"/><path class="cls-3" d="M47.75,11H35.5a5.26,5.26,0,0,0-5.25,5.25H53A5.26,5.26,0,0,0,47.75,11Z"/><path class="cls-3" d="M11,47.75A5.26,5.26,0,0,0,16.25,53H28.5a5.26,5.26,0,0,0,5.25-5.25v-7H11Z"/><path class="cls-3" d="M30.25,26.75A5.26,5.26,0,0,0,35.5,32H47.75A5.26,5.26,0,0,0,53,26.75v-7H30.25Z"/><path class="cls-3" d="M28.55,32H16.25A5.26,5.26,0,0,0,11,37.25H33.75a5.18,5.18,0,0,0-.42-2A8.71,8.71,0,0,1,28.55,32Z"/><path class="cls-2" d="M48.46,38.26h0a3.48,3.48,0,0,0-4.9,0l-4,3.87A1.75,1.75,0,0,0,42,44.64l2.29-2.19V46a3.5,3.5,0,0,1-3.5,3.5h-3.5a1.75,1.75,0,0,0,0,3.5h3.5a7,7,0,0,0,7-7V42.44L50,44.64a1.75,1.75,0,0,0,2.42-2.53Z"/></g></g></svg>