<svg xmlns="http://www.w3.org/2000/svg" viewBox="0 0 64 64"><defs><style>.cls-1{fill:#f3f6fa;}.cls-2{fill:#1e2a38;}.cls-3{fill:#f2b705;stroke:#f2b705;stroke-miterlimit:10;}</style></defs><g id="Layer_2" data-name="Layer 2"><g id="Layer_2-2" data-name="Layer 2"><rect class="cls-1" width="64" height="64" rx="16"/><path class="cls-2" d="M32,11A21,21,0,1,0,53,32,21,21,0,0,0,32,11Z"/><path class="cls-3" d="M24,40.65a1.12,1.12,0,0,1-.77-.35,1.1,1.1,0,0,1,0-1.56l15.9-15.08a1.1,1.1,0,0,1,1.52,1.6L24.81,40.34A1.14,1.14,0,0,1,24,40.65Zm5.91-14.24a3.32,3.32,0,1,0-3.4,3.23A3.33,3.33,0,0,0,29.93,26.41ZM40.71,37.77A3.32,3.32,0,1,0,37.3,41,3.34,3.34,0,0,0,40.71,37.77Z"/></g></g></svg>