<svg xmlns="http://www.w3.org/2000/svg" viewBox="0 0 64 64"><defs><style>.cls-1{fill:#f3f6fa;}.cls-2{fill:#1e2a38;}.cls-3{fill:#f2b705;}</style></defs><g id="Layer_2" data-name="Layer 2"><g id="Layer_2-2" data-name="Layer 2"><rect class="cls-1" width="64" height="64" rx="16"/><path class="cls-2" d="M51.47,28.27,47.7,24.5v-3a5.24,5.24,0,0,0-5.23-5.24h-3L35.7,12.48a5.37,5.37,0,0,0-7.4,0l-3.77,3.77h-3a5.24,5.24,0,0,0-5.23,5.24v3l-3.77,3.77a5.25,5.25,0,0,0,0,7.41l3.77,3.77v3a5.24,5.24,0,0,0,5.23,5.24h3l3.77,3.77a5.24,5.24,0,0,0,7.4,0l3.77-3.77h3a5.24,5.24,0,0,0,5.23-5.24v-3l3.77-3.77A5.25,5.25,0,0,0,51.47,28.27Z"/><path class="cls-3" d="M24,27.73H19.51a.34.34,0,0,0-.34.34v7.57a.35.35,0,0,0,.34.35h1.08a.35.35,0,0,0,.34-.35V33a.35.35,0,0,1,.35-.35h2a.34.34,0,0,0,.34-.34V31.5a.34.34,0,0,0-.34-.34h-2a.35.35,0,0,1-.35-.35V29.62a.35.35,0,0,1,.35-.35H24a.35.35,0,0,0,.35-.34v-.86A.35.35,0,0,0,24,27.73Z"/><path class="cls-3" d="M30.11,32.94a2.56,2.56,0,0,0,1.64-2.5A2.59,2.59,0,0,0,29,27.73H26a.34.34,0,0,0-.34.34v7.57A.35.35,0,0,0,26,36H27a.35.35,0,0,0,.35-.35V33.13h.39l1.75,2.7a.34.34,0,0,0,.29.16h1.92L30,33.46A.35.35,0,0,1,30.11,32.94ZM28.88,31.6H27.73a.35.35,0,0,1-.34-.35V29.62a.35.35,0,0,1,.34-.35h1.19a1.08,1.08,0,0,1,1,1.17A1.11,1.11,0,0,1,28.88,31.6Z"/><path class="cls-3" d="M38.26,34.44h-2.9A.34.34,0,0,1,35,34.1V33a.34.34,0,0,1,.34-.34h2.36a.35.35,0,0,0,.35-.35V31.5a.35.35,0,0,0-.35-.34H35.36a.35.35,0,0,1-.34-.35V29.62a.35.35,0,0,1,.34-.35h2.79a.35.35,0,0,0,.35-.34v-.86a.35.35,0,0,0-.35-.34H33.61a.34.34,0,0,0-.34.34v7.57a.35.35,0,0,0,.34.35h4.65a.35.35,0,0,0,.35-.35v-.85A.35.35,0,0,0,38.26,34.44Z"/><path class="cls-3" d="M45.17,34.44H42.28a.35.35,0,0,1-.35-.34V33a.35.35,0,0,1,.35-.34h2.35a.35.35,0,0,0,.35-.35V31.5a.35.35,0,0,0-.35-.34H42.28a.35.35,0,0,1-.35-.35V29.62a.35.35,0,0,1,.35-.35h2.79a.34.34,0,0,0,.34-.34v-.86a.34.34,0,0,0-.34-.34H40.53a.35.35,0,0,0-.35.34v7.57a.35.35,0,0,0,.35.35h4.64a.35.35,0,0,0,.35-.35v-.85A.35.35,0,0,0,45.17,34.44Z"/></g></g></svg>