<svg xmlns="http://www.w3.org/2000/svg" viewBox="0 0 64 64"><defs><style>.cls-1{fill:#f3f6fa;}.cls-2{fill:#f2b705;}.cls-3{fill:#1e2a38;}</style></defs><g id="Layer_2" data-name="Layer 2"><g id="Layer_2-2" data-name="Layer 2"><rect class="cls-1" width="64" height="64" rx="16"/><path class="cls-2" d="M41.63,26.75a7.88,7.88,0,1,0-7.88-7.88A7.88,7.88,0,0,0,41.63,26.75Z"/><path class="cls-3" d="M24.12,33.75a7.88,7.88,0,1,0-7.87-7.88A7.88,7.88,0,0,0,24.12,33.75Z"/><path class="cls-2" d="M40.72,30.18A12,12,0,0,0,31,35.24a16.71,16.71,0,0,1,8.6,9H51.25A1.75,1.75,0,0,0,53,42.5v-.07A12.27,12.27,0,0,0,40.72,30.18Z"/><path class="cls-3" d="M24.12,37.25A13.13,13.13,0,0,0,11,50.37v.88A1.75,1.75,0,0,0,12.75,53H35.5a1.75,1.75,0,0,0,1.75-1.75v-.88A13.13,13.13,0,0,0,24.12,37.25Z"/></g></g></svg>