<svg xmlns="http://www.w3.org/2000/svg" viewBox="0 0 64 64"><defs><style>.cls-1{fill:#f3f6fa;}.cls-2{fill:#f2b705;}.cls-3{fill:#1e2a38;}</style></defs><g id="Layer_2" data-name="Layer 2"><g id="Layer_2-2" data-name="Layer 2"><rect class="cls-1" width="64" height="64" rx="16"/><path class="cls-2" d="M30.45,32.86l-3.93-4.1L24,31.18l4,4.2a3.25,3.25,0,0,0,2.35,1h.06a3.23,3.23,0,0,0,2.34-1L42,26.27l-2.48-2.48Z"/><path class="cls-3" d="M45.9,15.61,32,11,18.1,15.61a5.25,5.25,0,0,0-3.6,5V32c0,13.17,16.1,20.44,16.79,20.75l.62.27.64-.21c.7-.23,17-5.8,17-20.81V20.59A5.25,5.25,0,0,0,45.9,15.61ZM32.78,35.46a3.23,3.23,0,0,1-2.34,1h-.06a3.25,3.25,0,0,1-2.35-1l-4-4.2,2.53-2.42,3.93,4.1,9.06-9.07L42,26.27Z"/></g></g></svg>