<svg xmlns="http://www.w3.org/2000/svg" viewBox="0 0 64 64"><defs><style>.cls-1{fill:#f3f6fa;}.cls-2{fill:#f2b705;}.cls-3{fill:#1e2a38;}</style></defs><g id="Layer_2" data-name="Layer 2"><g id="Layer_2-2" data-name="Layer 2"><rect class="cls-1" width="64" height="64" rx="16"/><path class="cls-2" d="M33.75,42.5H25A1.75,1.75,0,0,0,25,46h8.75a1.75,1.75,0,0,0,0-3.5Z"/><path class="cls-2" d="M39,35.5H25A1.75,1.75,0,0,0,25,39H39a1.75,1.75,0,0,0,0-3.5Z"/><path class="cls-3" d="M49.46,28.5H37.25A5.25,5.25,0,0,1,32,23.25V11c-.28,0-.56,0-.85,0h-7.9a8.77,8.77,0,0,0-8.75,8.75v24.5A8.77,8.77,0,0,0,23.25,53h17.5a8.77,8.77,0,0,0,8.75-8.75V29.35C49.5,29.06,49.48,28.78,49.46,28.5ZM33.75,46H25a1.75,1.75,0,0,1,0-3.5h8.75a1.75,1.75,0,0,1,0,3.5ZM39,39H25a1.75,1.75,0,0,1,0-3.5H39A1.75,1.75,0,0,1,39,39Z"/><path class="cls-3" d="M37.25,25H48.7a12.32,12.32,0,0,0-2.79-4.31l-6.1-6.1A12.18,12.18,0,0,0,35.5,11.8V23.25A1.75,1.75,0,0,0,37.25,25Z"/></g></g></svg>