<svg width="21" height="21" viewBox="0 0 21 21" fill="none" xmlns="http://www.w3.org/2000/svg">
<path d="M1 10.5C1 6.02166 1 3.78249 2.39124 2.39124C3.78249 1 6.02166 1 10.5 1C14.9784 1 17.2175 1 18.6088 2.39124C20 3.78249 20 6.02166 20 10.5C20 14.9783 20 17.2175 18.6088 18.6088C17.2175 20 14.9784 20 10.5 20C6.02166 20 3.78249 20 2.39124 18.6088C1 17.2175 1 14.9783 1 10.5Z" stroke="#72CEFF" stroke-width="1.5" stroke-linecap="round" stroke-linejoin="round"/>
<path d="M5.5 15.5L9.69358 11.3065M9.69358 11.3065L5.5 5.5H8.27778L11.3065 9.6935M9.69358 11.3065L12.7222 15.5H15.5L11.3065 9.6935M15.5 5.5L11.3065 9.6935" stroke="#72CEFF" stroke-width="1.3" stroke-linecap="round" stroke-linejoin="round"/>
</svg>
