<svg xmlns="http://www.w3.org/2000/svg" viewBox="0 0 952.94 199.94"><defs><style>.cls-1{fill:#163b63;}.cls-2{fill:#f2b705;}.cls-3{fill:#1ca7a6;}.cls-4{fill:none;}</style></defs><g id="Layer_2" data-name="Layer 2"><g id="Layer_1-2" data-name="Layer 1"><path class="cls-1" d="M94.24,77.17a54.37,54.37,0,0,0-19.46-9.32C55.64,63.08,39.71,70.52,34.84,73A63.36,63.36,0,0,0,6.08,103.79a64.08,64.08,0,0,0-4,12.37,101.07,101.07,0,0,0,11.67,32.61c2.88,5.06,18.5,31.47,50.93,44.09A110.62,110.62,0,0,0,98,199.68a104.64,104.64,0,0,0,27.62-2.11,94.56,94.56,0,0,0,22.5-8.14,92.75,92.75,0,0,0,31-25.47c5-6.57,11-14.47,12.89-26.43.9-5.76,3-19.16-5.1-25.88-7.1-5.89-17.8-3.16-19.11-2.82-6.63,1.7-12.07,6.29-16.35,9.9-1.51,1.27-2.7,2.4-3.51,3.19a49.27,49.27,0,0,0-13.06,2.56c-5.7,2-8,4-14.12,6.64A58.84,58.84,0,0,1,105.63,136c-13.59,2-24.88-4.42-28.08-6.4a41.82,41.82,0,0,1-15.89-16.92c-.43-.85-.77-1.62-1-2.24a43.68,43.68,0,0,1-2.79-22.93,44.62,44.62,0,0,1,15.34-8.67A45.07,45.07,0,0,1,94.24,77.17Z"/><path class="cls-2" d="M192.84,73.34c-3.6-33.91-35.74-55-41.17-58.44A98.62,98.62,0,0,0,99.39,0c-1.22,0-2.29,0-3.2.05C89.05.29,51.66,2.32,24.37,33.89c-30,34.74-23.24,76.77-22.25,82.31a60,60,0,0,1,5.52-15.76,61.69,61.69,0,0,1,7-10.63,66.07,66.07,0,0,1,23.6-18.16,62.54,62.54,0,0,1,25.2-5.28H64.6A69.63,69.63,0,0,1,85.91,38.73,68.07,68.07,0,0,1,125,24.46c.78,0,1.56,0,2.33,0a67.8,67.8,0,0,1,38.3,12c2.77,1.92,20.66,14.71,26.52,37.37.52,2,.85,3.77,1,5C193.15,77.52,193.09,75.63,192.84,73.34Z"/><circle class="cls-2" cx="168.21" cy="78.74" r="10.4"/><path class="cls-3" d="M187,111.55c-3.55-2.91-8-3.69-11.71-3.69a30.19,30.19,0,0,0-7.47,1c-6.67,1.72-12.13,6.34-16.35,9.9-1.51,1.27-2.7,2.4-3.51,3.19a49.27,49.27,0,0,0-13.06,2.56c-5.7,2-8,4-14.12,6.64A58.84,58.84,0,0,1,105.63,136a36,36,0,0,1-5.21.38c-11.2,0-20.09-5.06-22.87-6.78A41.92,41.92,0,0,1,62,113.36c0-.09-.07-.17-.1-.26a.6.6,0,0,0-.16-.24l-.12-.23c-.43-.85-.77-1.62-1-2.24a43.68,43.68,0,0,1-2.79-22.93A44.49,44.49,0,0,1,87,76.6a46.07,46.07,0,0,1,7.22.57,54.37,54.37,0,0,0-19.46-9.32A52.5,52.5,0,0,0,62,66.29,60.2,60.2,0,0,0,34.84,73,66,66,0,0,0,19.19,84.54,63,63,0,0,0,5.84,103.76a57.47,57.47,0,0,0-3.73,12.4,100.85,100.85,0,0,0,11.67,32.61c17,29.85,44.15,41.52,50.87,44.2a110.34,110.34,0,0,0,38.88,7c1.75,0,3.53,0,5.34-.13,1.39,0,2.79-.11,4.17-.24a.61.61,0,0,0,.27-.08,99.14,99.14,0,0,0,26.91-6.33h0a.64.64,0,0,0,.36-.14l1.8-.74A92.18,92.18,0,0,0,179.3,164c5.25-6.87,11-14.66,12.89-26.36C193.07,132.1,195.25,118.34,187,111.55ZM76.82,130.73a46.1,46.1,0,0,0,23.6,7,37.35,37.35,0,0,0,5.41-.39,60,60,0,0,0,15.48-4.94c2.6-1.14,4.56-2.18,6.29-3.1a48.82,48.82,0,0,1,7.72-3.49,47.54,47.54,0,0,1,11.32-2.39,57,57,0,0,1-23.13,15.73c-4.84,1.74-17.68,6.36-32.74,1.43A47,47,0,0,1,67.86,124c-.28-.37-.55-.76-.82-1.15A44.66,44.66,0,0,0,76.82,130.73ZM15,148.08A98.93,98.93,0,0,1,3.53,116.16a56.07,56.07,0,0,1,3.58-11.85A61.87,61.87,0,0,1,20.17,85.53,64.85,64.85,0,0,1,35.49,74.26,59,59,0,0,1,62,67.68,51.67,51.67,0,0,1,74.45,69.2a52.31,52.31,0,0,1,14.46,6c-.63,0-1.26,0-1.89,0h0a45.9,45.9,0,0,0-30.1,11.2l-.41.35h0l-.06,0c-1.81,1.8-3.58,3.7-5.25,5.64a83,83,0,0,0-8.72,11.86c-6.45,11.67-7,24.35-7,28,0,13.2,4.35,25.94,13,37.86a79.71,79.71,0,0,0,39.81,26.81c1.41.4,2.8.74,4.12,1a106.79,106.79,0,0,1-27.28-6.3C55.31,187.75,30.67,175.63,15,148.08Zm110.37,48.14a100.66,100.66,0,0,1-16.59,2.2,62.29,62.29,0,0,1-7.49-.27,92.62,92.62,0,0,1-12.57-2.55A77.68,77.68,0,0,1,59.8,179.82a68.19,68.19,0,0,1-10.16-10.51c-8.5-11.68-12.79-24.14-12.76-37,0-3.52.53-15.91,6.82-27.29.18-.32.38-.67.61-1a100.15,100.15,0,0,0,1.13,10.51,112.16,112.16,0,0,0,3.88,15.87c2.06,6.57,4.63,14.74,9,22.52,8.57,15.14,21,23.34,25.72,26.43a88.75,88.75,0,0,0,41.48,14c2.13.16,4.28.24,6.42.24,1.08,0,2.17,0,3.25-.07A99.74,99.74,0,0,1,125.36,196.22ZM141.85,191c-.64.27-1.29.54-1.95.8a85.84,85.84,0,0,1-14.25.13,87.29,87.29,0,0,1-40.81-13.81c-4.62-3-16.88-11.11-25.28-26-4.33-7.66-6.87-15.75-8.92-22.26a110.69,110.69,0,0,1-3.83-15.67,99.44,99.44,0,0,1-1.2-12.3c.44-.66.93-1.35,1.46-2.06a62.11,62.11,0,0,0,5.67,26.93,63.48,63.48,0,0,0,11.48,16.6l0,.08a63,63,0,0,0,3.45,5.89c6.46,9.77,15.61,17.65,27.21,23.44a85,85,0,0,0,19.94,7,82.5,82.5,0,0,0,17.09,1.74c4,0,7.13-.27,8.9-.42a86.57,86.57,0,0,0,15.32-2.64,75.43,75.43,0,0,0,12-4.5A91.84,91.84,0,0,1,141.85,191Zm36.34-27.88a81.67,81.67,0,0,1-6.61,7.61,74.09,74.09,0,0,1-15.8,6.45,84.75,84.75,0,0,1-15.06,2.59,84.7,84.7,0,0,1-25.58-1.29c-7.24-1.54-32-8.24-46.28-29.86-.39-.59-.77-1.2-1.14-1.8A63.58,63.58,0,0,0,75.87,153,67.1,67.1,0,0,0,98.2,162a68,68,0,0,0,14.24,1.63,53.34,53.34,0,0,0,14.12-1.86,88.12,88.12,0,0,0,14.65-5.8c2.74-1.32,4.37-2.25,5.94-3.15a64.79,64.79,0,0,1,6.51-3.32c5.36-2.38,9.23-4.1,14.71-4.72a33.76,33.76,0,0,1,12.85.9,30,30,0,0,1,6.35,2.69A72.73,72.73,0,0,1,178.19,163.12Zm12.63-25.73a43.15,43.15,0,0,1-1.1,5,35.91,35.91,0,0,0-6.54-2.63,36.94,36.94,0,0,0-12.79-1.3c-5.61.41-9.56,2-14.14,3.79a62.65,62.65,0,0,0-8.41,4.06c-1.57.87-3.35,1.86-5.91,3.1a79.84,79.84,0,0,1-17.75,6.74,58.41,58.41,0,0,1-46-8.81,59.72,59.72,0,0,1-21-25.89,61.09,61.09,0,0,1-4.65-28.39Q54.33,91,56.25,89a44.25,44.25,0,0,0,3.09,22c.33.76.69,1.54,1.08,2.31l.36.69a47.23,47.23,0,0,0,6,10.84,48.35,48.35,0,0,0,23.6,17.11,45.88,45.88,0,0,0,14.34,2.28,55.79,55.79,0,0,0,19.3-3.72,58.69,58.69,0,0,0,24.8-17.37l.08-.12,0,0c1.09-1.07,2.25-2.12,3.43-3.12l0,0c4.2-3.55,9.42-8,15.77-9.6a28.82,28.82,0,0,1,7.12-.92c4.46,0,8.1,1.14,10.83,3.38,3.24,2.66,5.11,6.88,5.54,12.53A52.46,52.46,0,0,1,190.82,137.39Z"/><path class="cls-1" d="M282.49,94.36l-9.28-2.75c-8.07-2-8.95-6.49-8.95-8.69,0-5.39,5-8.91,11.24-8.91s10.37,3.12,11.12,8.15a2,2,0,0,0,1.95,1.75h10.06a2,2,0,0,0,2-2.15C299.58,68.94,289.17,61,275.72,61c-13.86,0-25.32,8.91-25.32,22.22,0,6.6,2.62,16.39,19,21.12l9.28,2.42c7.2,2,10.69,5.39,10.37,10.34-.33,5.17-4.91,9.13-12.44,9.13-7.28,0-11.72-4.1-12.77-9a2,2,0,0,0-2-1.66H251.74a2,2,0,0,0-2,2.16c1.14,11.95,11.71,21.16,26.86,21.16,13.64,0,25.86-7.81,26.4-21.45C303.55,108.55,299.4,99.09,282.49,94.36Z"/><path class="cls-1" d="M338.52,63.22,311.85,135a2,2,0,0,0,1.88,2.69h10.58a2,2,0,0,0,1.87-1.3l6.39-17.07,12.08-35.68a2,2,0,0,1,3.79,0l12.17,35.68L367,136.4a2,2,0,0,0,1.88,1.3h10.47a2,2,0,0,0,1.87-2.69L354.55,63.22a2,2,0,0,0-1.87-1.31H340.4A2,2,0,0,0,338.52,63.22Z"/><path class="cls-3" d="M846.21,62.87l-26.67,71.79a2,2,0,0,0,1.88,2.7H832a2,2,0,0,0,1.87-1.3L840.26,119l12.08-35.68a2,2,0,0,1,3.79,0L868.3,119l6.39,17.07a2,2,0,0,0,1.88,1.3H887a2,2,0,0,0,1.87-2.7L862.24,62.87a2,2,0,0,0-1.87-1.3H848.09A2,2,0,0,0,846.21,62.87Z"/><path class="cls-1" d="M409.52,107.75,397.23,63.38a2,2,0,0,0-1.93-1.47H385a2,2,0,0,0-1.91,2.58l21.71,71.79a2,2,0,0,0,1.91,1.42h9.58a2,2,0,0,0,1.92-1.42l21.6-71.79a2,2,0,0,0-1.92-2.58h-10.3a2,2,0,0,0-1.92,1.47l-12.3,44.37A2,2,0,0,1,409.52,107.75Z"/><rect class="cls-1" x="453.35" y="125.16" width="47.58" height="12.54" rx="2"/><rect class="cls-1" x="453.35" y="61.91" width="46.49" height="12.54" rx="2"/><rect class="cls-1" x="453.24" y="94.08" width="46.49" height="12.54" rx="2"/><path class="cls-1" d="M615.63,63.07l-21.56,46.22a2,2,0,0,1-3.62,0L568.79,63.06A2,2,0,0,0,567,61.91h-8.74a2,2,0,0,0-2,1.76l-8.78,71.79a2,2,0,0,0,2,2.24h9.93a2,2,0,0,0,2-1.77l4.87-41.77a2,2,0,0,1,3.8-.62L586.27,128a2,2,0,0,0,1.81,1.15h8.59a2,2,0,0,0,1.81-1.15L614.59,93.6a2,2,0,0,1,3.8.62l4.77,41.71a2,2,0,0,0,2,1.77h9.93a2,2,0,0,0,2-2.24l-8.68-71.79a2,2,0,0,0-2-1.76h-9A2,2,0,0,0,615.63,63.07Z"/><path class="cls-3" d="M789.55,61.91H761a2,2,0,0,0-2,2V135.7a2,2,0,0,0,2,2h10a2,2,0,0,0,2-2V112.75a2,2,0,0,1,2-2h14.59c16.7,0,23.9-12,23.9-24.31S806.25,61.91,789.55,61.91Zm-.65,36.3H775a2,2,0,0,1-2-2V76.45a2,2,0,0,1,2-2h14.37c7,0,10.15,6.49,10.15,12S796.1,98.21,788.9,98.21Z"/><path class="cls-3" d="M932,94.41l20.54-29.35a2,2,0,0,0-1.64-3.15H939.12a2,2,0,0,0-1.63.87l-14.07,21a2,2,0,0,0,0,2.18l5.31,8.36A2,2,0,0,0,932,94.41Z"/><path class="cls-3" d="M918.55,91.06h0L899.82,62.81a2,2,0,0,0-1.67-.9H886.48a2,2,0,0,0-1.64,3.15l26.25,37.59a2,2,0,0,1,.36,1.14V135.7a2,2,0,0,0,2,2h10.3a2,2,0,0,0,2-2V103.38h0Z"/><path class="cls-1" d="M693.15,94.41l20.54-29.35a2,2,0,0,0-1.64-3.15H700.27a2,2,0,0,0-1.67.89l-14.06,21a2,2,0,0,0,0,2.18l5.31,8.36A2,2,0,0,0,693.15,94.41Z"/><path class="cls-1" d="M679.67,91.06h0L660.94,62.81a2,2,0,0,0-1.67-.9H647.6A2,2,0,0,0,646,65.06l26.25,37.59a2,2,0,0,1,.36,1.14V135.7a2,2,0,0,0,2,2h10.3a2,2,0,0,0,2-2V103.38h0Z"/><circle class="cls-4" cx="99.86" cy="99.97" r="99.86"/></g></g></svg>