<svg xmlns="http://www.w3.org/2000/svg" viewBox="0 0 64 64"><defs><style>.cls-1{fill:#f3f6fa;}.cls-2{fill:#1e2a38;}.cls-3{fill:#f2b705;}</style></defs><g id="Layer_2" data-name="Layer 2"><g id="Layer_2-2" data-name="Layer 2"><rect class="cls-1" width="64" height="64" rx="16"/><path class="cls-2" d="M39,35V52a1,1,0,0,0,1,1h1.5a1,1,0,0,0,1-1V33.58a1,1,0,0,0-1.7-.7c-.48.48-1,.95-1.48,1.43A1,1,0,0,0,39,35Z"/><path class="cls-3" d="M21.5,32A10.5,10.5,0,1,0,11,21.51,10.5,10.5,0,0,0,21.5,32Zm0-15.75a2.63,2.63,0,1,1-2.63,2.63A2.62,2.62,0,0,1,21.5,16.26Zm-5.25,9.63a2.62,2.62,0,0,1,2.62-2.63h5.25a2.63,2.63,0,0,1,2.63,2.63v.2a6.9,6.9,0,0,1-10.5,0Z"/><rect class="cls-2" x="47.74" y="25.01" width="3.5" height="27.99" rx="1"/><path class="cls-2" d="M31.24,53h1.5a1,1,0,0,0,1-1V40.73a1,1,0,0,0-1.54-.84c-.48.32-1,.63-1.48.94a1,1,0,0,0-.48.85V52A1,1,0,0,0,31.24,53Z"/><path class="cls-2" d="M13.75,53h1.5a1,1,0,0,0,1-1V48.62a1,1,0,0,0-1.27-1l-1.48.4a1,1,0,0,0-.75,1v3A1,1,0,0,0,13.75,53Z"/><path class="cls-2" d="M49.74,22.15,53,20.88l-3-7.79a3.29,3.29,0,0,0-4.26-1.86l-7.78,3,1.28,3.26,5.54-2.16C42,21.63,32.6,36.13,11,41.48v3.61c23.21-5.42,33.38-20.5,36.75-28Z"/><path class="cls-2" d="M22.5,53H24a1,1,0,0,0,1-1V45.49a1,1,0,0,0-1.4-.92l-1.48.63a1,1,0,0,0-.62.92V52A1,1,0,0,0,22.5,53Z"/></g></g></svg>