<svg xmlns="http://www.w3.org/2000/svg" viewBox="0 0 64 64"><defs><style>.cls-1{fill:#f3f6fa;}.cls-2{fill:#f2b705;}.cls-3{fill:#1e2a38;}</style></defs><g id="Layer_2" data-name="Layer 2"><g id="Layer_2-2" data-name="Layer 2"><rect class="cls-1" width="64" height="64" rx="17.18"/><path class="cls-2" d="M29.61,32l-2.27-2.37a1.18,1.18,0,0,0-1.67,0l-.82.78a1.2,1.2,0,0,0,0,1.68L28,35.38a3.25,3.25,0,0,0,2.35,1h.06a3.23,3.23,0,0,0,2.34-1l8.37-8.36a1.18,1.18,0,0,0,0-1.67l-.8-.8a1.18,1.18,0,0,0-1.67,0L31.3,32A1.19,1.19,0,0,1,29.61,32Z"/><path class="cls-3" d="M45.09,15.34,32.37,11.12a1.17,1.17,0,0,0-.74,0L18.91,15.34a6.43,6.43,0,0,0-4.41,6.1V32c0,13.17,16.1,20.44,16.79,20.75l.62.27.64-.21c.7-.23,17-5.8,17-20.81V21.44A6.43,6.43,0,0,0,45.09,15.34ZM32.78,35.46a3.23,3.23,0,0,1-2.34,1h-.06a3.25,3.25,0,0,1-2.35-1L24.81,32a1.2,1.2,0,0,1,0-1.68l.82-.78a1.18,1.18,0,0,1,1.67,0L29.61,32a1.19,1.19,0,0,0,1.69,0l7.38-7.38a1.18,1.18,0,0,1,1.67,0l.8.8a1.18,1.18,0,0,1,0,1.67Z"/></g></g></svg>