<svg xmlns="http://www.w3.org/2000/svg" viewBox="0 0 64 64"><defs><style>.cls-1{fill:#f3f6fa;}.cls-2{fill:#1e2a38;}.cls-3{fill:#f2b705;}.cls-4{fill:#fff;}</style></defs><g id="Layer_2" data-name="Layer 2"><g id="Layer_2-2" data-name="Layer 2"><rect class="cls-1" width="64" height="64" rx="16"/><path class="cls-2" d="M37.35,13.63a1.71,1.71,0,0,0-1.84,1.55C35.2,18,34,20.62,27.63,20.62H18a7,7,0,0,0-7,7v1.75a7,7,0,0,0,7,7h9.63c6.39,0,7.57,2.62,7.88,5.45a1.74,1.74,0,0,0,1.74,1.55h.1A1.75,1.75,0,0,0,39,41.63V15.38A1.75,1.75,0,0,0,37.35,13.63Z"/><path class="cls-2" d="M26.38,39.88H18a11.45,11.45,0,0,1-1.56-.12l3.53,8a4.5,4.5,0,0,0,8.24-3.62Z"/><path class="cls-3" d="M42.52,36a3.2,3.2,0,0,1-2.3-.95,3.25,3.25,0,0,1,0-4.59,2.74,2.74,0,0,0,0-3.86A3.25,3.25,0,1,1,44.82,22a9.25,9.25,0,0,1,0,13A3.21,3.21,0,0,1,42.52,36Z"/><path class="cls-4" d="M42.52,22.52a1.7,1.7,0,0,1,1.23.52,7.71,7.71,0,0,1,0,10.92,1.73,1.73,0,0,1-1.23.51,1.75,1.75,0,0,1-1.24-3,4.23,4.23,0,0,0,0-6,1.75,1.75,0,0,1,0-2.47,1.72,1.72,0,0,1,1.24-.52m0-3a4.75,4.75,0,0,0-3.36,8.11,1.24,1.24,0,0,1,.36.87,1.22,1.22,0,0,1-.36.86,4.76,4.76,0,0,0,0,6.72,4.76,4.76,0,0,0,6.72,0,10.74,10.74,0,0,0,0-15.16,4.72,4.72,0,0,0-3.36-1.4Z"/><path class="cls-3" d="M47.66,40.41a3.25,3.25,0,0,1-2.29-5.55,9,9,0,0,0,0-12.73,3.24,3.24,0,0,1-1-2.3A3.25,3.25,0,0,1,50,17.54a15.5,15.5,0,0,1,0,21.92A3.24,3.24,0,0,1,47.66,40.41Z"/><path class="cls-4" d="M47.66,18.09a1.75,1.75,0,0,1,1.24.51,14,14,0,0,1,0,19.8,1.75,1.75,0,0,1-1.24.51,1.73,1.73,0,0,1-1.23-.51,1.74,1.74,0,0,1,0-2.48,10.51,10.51,0,0,0,0-14.85,1.75,1.75,0,0,1,1.23-3m0-3a4.74,4.74,0,0,0-3.36,8.1,7.5,7.5,0,0,1,0,10.61,4.77,4.77,0,0,0-1.39,3.36A4.75,4.75,0,0,0,51,40.52a17,17,0,0,0,0-24,4.71,4.71,0,0,0-3.36-1.39Z"/></g></g></svg>