<svg xmlns="http://www.w3.org/2000/svg" viewBox="0 0 64 64"><defs><style>.cls-1{fill:#f3f6fa;}.cls-2{fill:#f2b705;}.cls-3{fill:#1e2a38;}</style></defs><g id="Layer_2" data-name="Layer 2"><g id="Layer_2-2" data-name="Layer 2"><rect class="cls-1" width="64" height="64" rx="16"/><path class="cls-2" d="M40.39,26.38l-8.85,8.75a2.05,2.05,0,0,1-2.87,0l-4.55-4.37a1.75,1.75,0,0,0-2.46,2.48l4.55,4.38a5.57,5.57,0,0,0,7.8,0l8.85-8.74h0a1.75,1.75,0,0,0-2.47-2.49Z"/><path class="cls-3" d="M51.47,28.27,47.7,24.5v-3a5.24,5.24,0,0,0-5.23-5.24h-3L35.7,12.48a5.37,5.37,0,0,0-7.4,0l-3.77,3.77h-3a5.24,5.24,0,0,0-5.23,5.24v3l-3.77,3.77a5.25,5.25,0,0,0,0,7.41l3.77,3.77v3a5.24,5.24,0,0,0,5.23,5.24h3l3.77,3.77a5.24,5.24,0,0,0,7.4,0l3.77-3.77h3a5.24,5.24,0,0,0,5.23-5.24v-3l3.77-3.77A5.25,5.25,0,0,0,51.47,28.27Zm-8.61.6h0L34,37.61a5.57,5.57,0,0,1-7.8,0l-4.55-4.38a1.75,1.75,0,0,1,2.46-2.48l4.55,4.37a2.05,2.05,0,0,0,2.87,0l8.85-8.75a1.75,1.75,0,0,1,2.47,2.49Z"/></g></g></svg>