<svg xmlns="http://www.w3.org/2000/svg" viewBox="0 0 64 64"><defs><style>.cls-1{fill:#f3f6fa;}.cls-2{fill:#1e2a38;}.cls-3{fill:#f2b705;}</style></defs><g id="Layer_2" data-name="Layer 2"><g id="Layer_2-2" data-name="Layer 2"><rect class="cls-1" width="64" height="64" rx="16"/><path class="cls-2" d="M42.42,40.72l-3,3.82a1.75,1.75,0,1,1-2.76-2.14l3.12-4a4,4,0,0,0,.43-4.54h0a3.88,3.88,0,0,0-6-.87l-4.21,3.95a10.53,10.53,0,0,0-3.31,7.65v6.69A1.75,1.75,0,0,0,28.51,53H41.6A3.47,3.47,0,0,0,44,52.07L47.12,49a14,14,0,0,0,4.13-9.42A12.23,12.23,0,0,1,46,40.72Z"/><path class="cls-3" d="M37.94,28.51A7.29,7.29,0,0,1,43.24,32a7,7,0,0,1,1,3.8V14.5h-3.5a5.26,5.26,0,0,0-5.25,5.25v8.86A7.39,7.39,0,0,1,37.94,28.51Z"/><path class="cls-3" d="M47.75,14.5V37.25A5.26,5.26,0,0,0,53,32V19.75A5.25,5.25,0,0,0,47.75,14.5Z"/><path class="cls-2" d="M32,30.32V19.75a8.71,8.71,0,0,1,2.42-6l-8-2.65a1.73,1.73,0,0,0-1.1,0l-9.12,3a7.59,7.59,0,0,0-5.2,7.2v7.55c0,8.7,8.24,14.35,12.26,16.58v-.87a14,14,0,0,1,4.41-10.2Z"/></g></g></svg>