<svg xmlns="http://www.w3.org/2000/svg" viewBox="0 0 64 64"><defs><style>.cls-1{fill:#f3f6fa;}.cls-2{fill:#f2b705;}.cls-3{fill:#1e2a38;}</style></defs><g id="Layer_2" data-name="Layer 2"><g id="Layer_2-2" data-name="Layer 2"><rect class="cls-1" width="64" height="64" rx="16"/><path class="cls-2" d="M33.78,21.5a9.83,9.83,0,0,0-10,9.64,9.83,9.83,0,0,0,10,9.63,9.83,9.83,0,0,0,10-9.63A9.84,9.84,0,0,0,33.78,21.5Zm1.66,11.24h4.77a6.61,6.61,0,0,1-6.43,4.82,6.43,6.43,0,1,1,0-12.85,6.63,6.63,0,0,1,6.43,4.82H35.44a1.61,1.61,0,1,0,0,3.21Z"/><path class="cls-3" d="M43.78,15.07H20.44a8.19,8.19,0,0,0-8.33,8h3.33a1.61,1.61,0,1,1,0,3.22H12.11V36h3.33a1.61,1.61,0,1,1,0,3.22H12.11a8.05,8.05,0,0,0,5,7.36v2.28a1.67,1.67,0,0,0,3.33,0V47.2H43.78v1.61a1.67,1.67,0,0,0,3.33,0V46.53a8.07,8.07,0,0,0,5-7.36V23.1A8.19,8.19,0,0,0,43.78,15.07Zm-10,25.7a9.83,9.83,0,0,1-10-9.63,9.83,9.83,0,0,1,10-9.64,9.84,9.84,0,0,1,10,9.64A9.83,9.83,0,0,1,33.78,40.77Z"/><path class="cls-3" d="M35.44,29.53h4.77a6.63,6.63,0,0,0-6.43-4.82,6.43,6.43,0,1,0,0,12.85,6.61,6.61,0,0,0,6.43-4.82H35.44a1.61,1.61,0,1,1,0-3.21Z"/></g></g></svg>