<svg xmlns="http://www.w3.org/2000/svg" viewBox="0 0 64 64"><defs><style>.cls-1{fill:#f3f6fa;}.cls-2{fill:#1e2a38;stroke:#1e2a38;}.cls-2,.cls-3{stroke-miterlimit:10;}.cls-3{fill:#f2b705;stroke:#f2b705;}</style></defs><g id="Layer_2" data-name="Layer 2"><g id="Layer_2-2" data-name="Layer 2"><rect class="cls-1" width="64" height="64" rx="16"/><path class="cls-2" d="M53,40.63l-13.37,8c0-8.57,0-14.81,0-15.1a.5.5,0,0,1,.06-.3.71.71,0,0,1,.3-.26l12.63-7.29L53,25.4Z"/><path class="cls-2" d="M36.73,48.61,35,47.6c-3.73-2.15-7.45-4.31-11.19-6.45A1.57,1.57,0,0,0,23,41H12.88a2.78,2.78,0,0,1-.81-.11,1.56,1.56,0,0,1-1-1.72,1.58,1.58,0,0,1,1.49-1.34c.43,0,.87,0,1.31,0,3.12,0,6.24,0,9.37,0a1.48,1.48,0,0,0,1.46-2,1.3,1.3,0,0,0-1.37-.94H17a1.62,1.62,0,0,1-1.67-1.22,1.57,1.57,0,0,1,1.54-1.95c1.64,0,3.28,0,4.91,0a1.42,1.42,0,0,0,1.51-1.76,1.32,1.32,0,0,0-1.45-1.2H12.79a1.61,1.61,0,0,1-1.63-1,1.58,1.58,0,0,1,1.5-2.19H20.6c.58,0,1.17,0,1.76,0a3.52,3.52,0,0,1,2.11.56q5.94,3.48,11.92,6.9a.81.81,0,0,1,.31.26.55.55,0,0,1,.06.29C36.76,33.77,36.75,40,36.73,48.61Z"/><path class="cls-3" d="M38.52,30.54a.74.74,0,0,1-.36.12.78.78,0,0,1-.37-.12q-6.32-3.67-12.63-7.31L24.77,23l1.46-.85,4.92-2.84c.08-.05.19-.08.24-.15s.22-.32.18-.44a.51.51,0,0,0-.39-.26c-.54,0-1.09,0-1.63,0a1.6,1.6,0,1,1,0-3.18h8.31a1.36,1.36,0,0,1,.5.11c4.09,1,10,5.17,13.07,7.54C44.11,27.23,38.8,30.36,38.52,30.54Z"/><path class="cls-2" d="M19.13,18.44H14.34a1.58,1.58,0,0,1-1.55-1.27,1.56,1.56,0,0,1,.85-1.73,2,2,0,0,1,.79-.17h9.45a1.59,1.59,0,1,1,0,3.17Z"/></g></g></svg>