<svg xmlns="http://www.w3.org/2000/svg" viewBox="0 0 64 64"><defs><style>.cls-1{fill:#f3f6fa;}.cls-2{fill:#1e2a38;}.cls-3{fill:#f2b705;}.cls-4{fill:#fff;}</style></defs><g id="Layer_2" data-name="Layer 2"><g id="Layer_2-2" data-name="Layer 2"><rect class="cls-1" width="64" height="64" rx="16"/><path class="cls-2" d="M31.12,21.5a2.62,2.62,0,0,0-2.62,2.63V50.37a2.63,2.63,0,1,0,5.25,0V24.13A2.63,2.63,0,0,0,31.12,21.5Z"/><path class="cls-2" d="M42.5,22.38v-3.5a2.63,2.63,0,1,0-5.25,0v3.5a2.63,2.63,0,0,0,5.25,0Z"/><path class="cls-3" d="M46,54.5a4.14,4.14,0,0,1-4.13-4,7.7,7.7,0,0,1-3.82-3.28,4.12,4.12,0,0,1,1.51-5.63,4,4,0,0,1,1.18-.46,7.78,7.78,0,0,1,1.14-13.32v-.15a4.12,4.12,0,0,1,8.24-.1A7.68,7.68,0,0,1,54,30.81a4.13,4.13,0,0,1-1.51,5.63,4,4,0,0,1-1.18.46,7.78,7.78,0,0,1-1.14,13.32v.15A4.13,4.13,0,0,1,46,54.5Z"/><path class="cls-4" d="M46,25a2.62,2.62,0,0,1,2.62,2.63v1a6.16,6.16,0,0,1,4,2.92,2.63,2.63,0,0,1-4.55,2.63.86.86,0,0,0-.76-.44H45.28a1,1,0,0,0-.39,2l4.16,1.66a6.27,6.27,0,0,1-.43,11.81v1.17a2.63,2.63,0,1,1-5.25,0v-1a6.14,6.14,0,0,1-4-2.92,2.63,2.63,0,0,1,1-3.59,2.68,2.68,0,0,1,1.31-.35,2.63,2.63,0,0,1,2.28,1.31.88.88,0,0,0,.76.44h2.06a1,1,0,0,0,1-1,1,1,0,0,0-.65-.95L43,40.61a6.27,6.27,0,0,1,.43-11.81V27.63A2.62,2.62,0,0,1,46,25m0-3a5.63,5.63,0,0,0-5.57,4.87,9.28,9.28,0,0,0-2.29,13.84,5.64,5.64,0,0,0-1.39,7.23,9.17,9.17,0,0,0,3.73,3.55,5.63,5.63,0,0,0,11.09-.36,9.28,9.28,0,0,0,2.29-13.84,5.63,5.63,0,0,0,1.38-7.23,9.11,9.11,0,0,0-3.73-3.55A5.62,5.62,0,0,0,46,22Z"/><path class="cls-2" d="M13.62,32A2.62,2.62,0,0,0,11,34.62V50.37a2.63,2.63,0,1,0,5.25,0V34.62A2.62,2.62,0,0,0,13.62,32Z"/><path class="cls-2" d="M48.62,22.38a2.63,2.63,0,0,0,2.63-2.63V13.63a2.63,2.63,0,1,0-5.25,0v6.12A2.62,2.62,0,0,0,48.62,22.38Z"/><path class="cls-2" d="M22.37,26.75a2.62,2.62,0,0,0-2.62,2.63v21a2.63,2.63,0,1,0,5.25,0v-21A2.62,2.62,0,0,0,22.37,26.75Z"/></g></g></svg>