<svg xmlns="http://www.w3.org/2000/svg" viewBox="0 0 64 64"><defs><style>.cls-1{fill:#f3f6fa;}.cls-2{fill:#f2b705;}</style></defs><g id="Layer_2" data-name="Layer 2"><g id="Layer_2-2" data-name="Layer 2"><rect class="cls-1" width="64" height="64" rx="16"/><path class="cls-2" d="M30.69,53A3.93,3.93,0,0,1,29,52.63,3.81,3.81,0,0,1,26.94,48l2.73-9H23.23a5.24,5.24,0,0,1-5-6.77l5.29-17.5a5.22,5.22,0,0,1,5-3.73H35a4.54,4.54,0,0,1,4.54,4.55,4.47,4.47,0,0,1-.28,1.59L36.3,25h4.47a5.25,5.25,0,0,1,4.35,8.2l-11.2,18A3.86,3.86,0,0,1,30.69,53Z"/></g></g></svg>