<svg xmlns="http://www.w3.org/2000/svg" viewBox="0 0 64 64"><defs><style>.cls-1{fill:#f3f6fa;}.cls-2{fill:#1e2a38;}.cls-3{fill:#f2b705;}</style></defs><g id="Layer_2" data-name="Layer 2"><g id="Layer_2-2" data-name="Layer 2"><rect class="cls-1" width="64" height="64" rx="16"/><path class="cls-2" d="M29,18.26h0L27.34,14.9A7,7,0,0,0,21.07,11h-4A3.47,3.47,0,0,0,14,16l4,8.06A19.15,19.15,0,0,1,29,18.26Z"/><path class="cls-2" d="M49.85,12.64a3.46,3.46,0,0,0-3-1.64h-4a7,7,0,0,0-6.27,3.9L35,18.25A19.23,19.23,0,0,1,46,24.11L50,16h0A3.45,3.45,0,0,0,49.85,12.64Z"/><path class="cls-3" d="M38,35.09H34.29l-1-3.81a1.36,1.36,0,0,0-2.64,0l-1,3.81H25.92a1.18,1.18,0,0,0-1.22,1.13,1.72,1.72,0,0,0,.95,1.44l2.6,1.45L27.1,42.27a1.48,1.48,0,0,0,2.29,1.67l2.59-2,2.59,2a1.48,1.48,0,0,0,2.29-1.67l-1.15-3.16,2.6-1.45a1.72,1.72,0,0,0,.95-1.44A1.18,1.18,0,0,0,38,35.09Z"/><path class="cls-2" d="M47.73,37.25A15.75,15.75,0,1,0,32,53,15.77,15.77,0,0,0,47.73,37.25Zm-9.42.41-2.6,1.45,1.15,3.16a1.48,1.48,0,0,1-2.29,1.67l-2.59-2-2.59,2a1.48,1.48,0,0,1-2.29-1.67l1.15-3.16-2.6-1.45a1.72,1.72,0,0,1-.95-1.44,1.18,1.18,0,0,1,1.22-1.13h3.75l1-3.81a1.36,1.36,0,0,1,2.64,0l1,3.81H38a1.18,1.18,0,0,1,1.22,1.13A1.72,1.72,0,0,1,38.31,37.66Z"/></g></g></svg>