<svg xmlns="http://www.w3.org/2000/svg" viewBox="0 0 64 64"><defs><style>.cls-1{fill:#f3f6fa;}.cls-2{fill:#f2b705;}.cls-3{fill:#1e2a38;}</style></defs><g id="Layer_2" data-name="Layer 2"><g id="Layer_2-2" data-name="Layer 2"><rect class="cls-1" width="64" height="64" rx="16"/><path class="cls-2" d="M39,30.25H33.75V21.5a1.75,1.75,0,0,0-3.5,0V32A1.75,1.75,0,0,0,32,33.75h7a1.75,1.75,0,0,0,0-3.5Z"/><path class="cls-3" d="M32,11A21,21,0,1,0,53,32,21,21,0,0,0,32,11Zm7,22.75H32A1.75,1.75,0,0,1,30.25,32V21.5a1.75,1.75,0,0,1,3.5,0v8.75H39a1.75,1.75,0,0,1,0,3.5Z"/></g></g></svg>