<svg xmlns="http://www.w3.org/2000/svg" viewBox="0 0 35 41.94"><defs><style>.cls-1{fill:#163B63;}.cls-2{fill:#f2f2f2;}</style></defs><g id="Layer_2" data-name="Layer 2"><g id="Layer_3" data-name="Layer 3"><path class="cls-1" d="M15.11,20.93l-2.27-2.38a1.18,1.18,0,0,0-1.67,0l-.82.78a1.18,1.18,0,0,0,0,1.67l3.22,3.35a3.25,3.25,0,0,0,2.35,1.05h.06a3.31,3.31,0,0,0,2.34-1L26.65,16a1.18,1.18,0,0,0,0-1.67l-.8-.81a1.18,1.18,0,0,0-1.67,0L16.8,20.94A1.19,1.19,0,0,1,15.11,20.93Z"/><path class="cls-2" d="M30.59,4.28,17.87.06a1.17,1.17,0,0,0-.74,0L4.41,4.28A6.43,6.43,0,0,0,0,10.38V20.92C0,34.09,16.1,41.36,16.79,41.66l.62.28.64-.22c.7-.23,17-5.79,17-20.8V10.38A6.43,6.43,0,0,0,30.59,4.28ZM18.28,24.4a3.31,3.31,0,0,1-2.34,1h-.06a3.25,3.25,0,0,1-2.35-1.05L10.31,21a1.18,1.18,0,0,1,0-1.67l.82-.78a1.18,1.18,0,0,1,1.67,0l2.27,2.38a1.19,1.19,0,0,0,1.69,0l7.38-7.38a1.18,1.18,0,0,1,1.67,0l.8.81a1.18,1.18,0,0,1,0,1.67Z"/></g></g></svg>