<svg xmlns="http://www.w3.org/2000/svg" viewBox="0 0 45 45"><defs><style>.cls-1{fill:#1e2a38;}.cls-2{fill:#f2b705;}.cls-3{fill:#fff;}</style></defs><g id="Layer_2" data-name="Layer 2"><g id="Layer_3" data-name="Layer 3"><path class="cls-1" d="M20.12,10.5a2.62,2.62,0,0,0-2.62,2.62V39.37a2.63,2.63,0,1,0,5.25,0V13.12A2.62,2.62,0,0,0,20.12,10.5Z"/><path class="cls-1" d="M31.5,11.37V7.87a2.63,2.63,0,0,0-5.25,0v3.5a2.63,2.63,0,1,0,5.25,0Z"/><path class="cls-2" d="M35,43.5a4.14,4.14,0,0,1-4.13-4,7.7,7.7,0,0,1-3.82-3.28,4.12,4.12,0,0,1,1.51-5.63,4,4,0,0,1,1.18-.46,7.78,7.78,0,0,1,1.14-13.32v-.16a4.12,4.12,0,0,1,8.24-.09A7.63,7.63,0,0,1,43,19.81a4.13,4.13,0,0,1-1.51,5.63,4,4,0,0,1-1.18.46,7.78,7.78,0,0,1-1.14,13.32v.15A4.13,4.13,0,0,1,35,43.5Z"/><path class="cls-3" d="M35,14a2.62,2.62,0,0,1,2.62,2.62v1a6.16,6.16,0,0,1,4,2.92,2.64,2.64,0,0,1-1,3.59,2.74,2.74,0,0,1-1.31.35,2.63,2.63,0,0,1-2.28-1.31.86.86,0,0,0-.76-.44H34.28a1,1,0,0,0-.39,2l4.16,1.66a6.27,6.27,0,0,1-.43,11.81v1.17a2.63,2.63,0,1,1-5.25,0v-1a6.14,6.14,0,0,1-4-2.92,2.63,2.63,0,0,1,1-3.59,2.58,2.58,0,0,1,1.31-.35,2.63,2.63,0,0,1,2.28,1.31.88.88,0,0,0,.76.44h2.06a1,1,0,0,0,1-1,1,1,0,0,0-.65-.95L32,29.6A6.23,6.23,0,0,1,28,23.78a6.3,6.3,0,0,1,4.38-6V16.62A2.62,2.62,0,0,1,35,14m0-3a5.63,5.63,0,0,0-5.57,4.87,9.28,9.28,0,0,0-2.29,13.84,5.64,5.64,0,0,0-1.39,7.23,9.17,9.17,0,0,0,3.73,3.55,5.63,5.63,0,0,0,11.09-.36,9.28,9.28,0,0,0,2.29-13.84,5.63,5.63,0,0,0,1.38-7.23,9.11,9.11,0,0,0-3.73-3.55A5.62,5.62,0,0,0,35,11Z"/><path class="cls-1" d="M2.62,21A2.62,2.62,0,0,0,0,23.62V39.37a2.63,2.63,0,1,0,5.25,0V23.62A2.62,2.62,0,0,0,2.62,21Z"/><path class="cls-1" d="M37.62,11.37a2.62,2.62,0,0,0,2.63-2.62V2.62a2.63,2.63,0,0,0-5.25,0V8.75A2.62,2.62,0,0,0,37.62,11.37Z"/><path class="cls-1" d="M11.37,15.75a2.62,2.62,0,0,0-2.62,2.62v21a2.63,2.63,0,1,0,5.25,0v-21A2.62,2.62,0,0,0,11.37,15.75Z"/></g></g></svg>