<svg xmlns="http://www.w3.org/2000/svg" viewBox="0 0 42 42"><defs><style>.cls-1{fill:#f2b705;}.cls-2{fill:#1e2a38;}</style></defs><g id="Layer_2" data-name="Layer 2"><g id="Layer_3" data-name="Layer 3"><path class="cls-1" d="M30.63,15.75a7.88,7.88,0,1,0-7.88-7.88A7.88,7.88,0,0,0,30.63,15.75Z"/><path class="cls-2" d="M13.12,22.75a7.88,7.88,0,1,0-7.87-7.88A7.88,7.88,0,0,0,13.12,22.75Z"/><path class="cls-1" d="M29.72,19.18A12,12,0,0,0,20,24.24a16.71,16.71,0,0,1,8.6,9H40.25A1.75,1.75,0,0,0,42,31.5v-.07A12.27,12.27,0,0,0,29.72,19.18Z"/><path class="cls-2" d="M13.12,26.25A13.13,13.13,0,0,0,0,39.37v.88A1.75,1.75,0,0,0,1.75,42H24.5a1.75,1.75,0,0,0,1.75-1.75v-.88A13.13,13.13,0,0,0,13.12,26.25Z"/></g></g></svg>