<svg xmlns="http://www.w3.org/2000/svg" viewBox="0 0 42 42"><defs><style>.cls-1{fill:#f2b705;}.cls-2{fill:#1e2a38;}</style></defs><g id="Layer_2" data-name="Layer 2"><g id="Layer_3" data-name="Layer 3"><path class="cls-1" d="M29.39,15.38l-8.85,8.75a2.05,2.05,0,0,1-2.87,0l-4.55-4.37a1.75,1.75,0,1,0-2.46,2.48l4.54,4.38a5.58,5.58,0,0,0,7.81,0l8.84-8.74h0a1.75,1.75,0,0,0-2.46-2.49Z"/><path class="cls-2" d="M40.47,17.27,36.7,13.5v-3a5.24,5.24,0,0,0-5.23-5.24h-3L24.7,1.48a5.37,5.37,0,0,0-7.4,0L13.53,5.25h-3A5.24,5.24,0,0,0,5.3,10.49v3L1.53,17.27a5.25,5.25,0,0,0,0,7.41l3.76,3.77v3a5.25,5.25,0,0,0,5.24,5.24h3l3.76,3.77a5.25,5.25,0,0,0,7.41,0l3.76-3.77h3a5.24,5.24,0,0,0,5.23-5.24v-3l3.77-3.77A5.27,5.27,0,0,0,40.47,17.27Zm-8.62.6h0L23,26.61a5.58,5.58,0,0,1-7.81,0l-4.54-4.38a1.75,1.75,0,1,1,2.46-2.48l4.55,4.37a2.05,2.05,0,0,0,2.87,0l8.85-8.75a1.75,1.75,0,0,1,2.46,2.49Z"/></g></g></svg>