<svg xmlns="http://www.w3.org/2000/svg" viewBox="0 0 40 35.34"><defs><style>.cls-1{fill:#f2b705;}.cls-2{fill:#1e2a38;}</style></defs><g id="Layer_2" data-name="Layer 2"><g id="Layer_3" data-name="Layer 3"><path class="cls-1" d="M21.67,6.43a9.83,9.83,0,0,0-10,9.64,9.84,9.84,0,0,0,10,9.64,9.84,9.84,0,0,0,10-9.64A9.84,9.84,0,0,0,21.67,6.43Zm1.66,11.24H28.1a6.61,6.61,0,0,1-6.43,4.82A6.54,6.54,0,0,1,15,16.07a6.55,6.55,0,0,1,6.67-6.43,6.63,6.63,0,0,1,6.43,4.82H23.33a1.61,1.61,0,1,0,0,3.21Z"/><path class="cls-2" d="M31.67,0H8.33A8.19,8.19,0,0,0,0,8H3.33a1.61,1.61,0,1,1,0,3.22H0v9.64H3.33a1.61,1.61,0,1,1,0,3.21H0a8.05,8.05,0,0,0,5,7.36v2.28a1.67,1.67,0,0,0,3.33,0V32.13H31.67v1.61a1.67,1.67,0,0,0,3.33,0V31.46a8.07,8.07,0,0,0,5-7.36V8A8.19,8.19,0,0,0,31.67,0Zm-10,25.71a9.84,9.84,0,0,1-10-9.64,9.83,9.83,0,0,1,10-9.64,9.84,9.84,0,0,1,10,9.64A9.84,9.84,0,0,1,21.67,25.71Z"/><path class="cls-2" d="M23.33,14.46H28.1a6.63,6.63,0,0,0-6.43-4.82A6.55,6.55,0,0,0,15,16.07a6.54,6.54,0,0,0,6.67,6.42,6.61,6.61,0,0,0,6.43-4.82H23.33a1.61,1.61,0,1,1,0-3.21Z"/></g></g></svg>