<svg xmlns="http://www.w3.org/2000/svg" viewBox="0 0 42 29.29"><defs><style>.cls-1{fill:#1e2a38;}.cls-2{fill:#f2b705;}</style></defs><g id="Layer_2" data-name="Layer 2"><g id="Layer_3" data-name="Layer 3"><path class="cls-1" d="M41.92,6.05,27.19,17.25a10.8,10.8,0,0,1-12.38,0L.08,6.05c0,.21-.08.4-.08.61v16c0,3.67,3.92,6.65,8.75,6.66h24.5c4.83,0,8.74-3,8.75-6.66v-16C42,6.45,41.94,6.26,41.92,6.05Z"/><path class="cls-2" d="M24.71,15.37l16-12.16A9.57,9.57,0,0,0,33.25,0H8.75A9.57,9.57,0,0,0,1.3,3.21l16,12.16A6.47,6.47,0,0,0,24.71,15.37Z"/></g></g></svg>