<svg xmlns="http://www.w3.org/2000/svg" viewBox="0 0 42 42"><defs><style>.cls-1{fill:#f2b705;}.cls-2{fill:#1e2a38;}</style></defs><g id="Layer_2" data-name="Layer 2"><g id="Layer_3" data-name="Layer 3"><path class="cls-1" d="M4.54,14.74a3.5,3.5,0,0,0,4.9,0l4-3.87A1.75,1.75,0,0,0,11,8.36L8.75,10.55V7a3.5,3.5,0,0,1,3.5-3.5H14A1.75,1.75,0,0,0,14,0H12.25a7,7,0,0,0-7,7v3.56L3,8.36A1.75,1.75,0,0,0,.54,10.89Z"/><path class="cls-2" d="M36.75,0H24.5a5.26,5.26,0,0,0-5.25,5.25H42A5.26,5.26,0,0,0,36.75,0Z"/><path class="cls-2" d="M0,36.75A5.26,5.26,0,0,0,5.25,42H17.5a5.26,5.26,0,0,0,5.25-5.25v-7H0Z"/><path class="cls-2" d="M19.25,15.75A5.26,5.26,0,0,0,24.5,21H36.75A5.26,5.26,0,0,0,42,15.75v-7H19.25Z"/><path class="cls-2" d="M17.55,21H5.25A5.26,5.26,0,0,0,0,26.25H22.75a5.18,5.18,0,0,0-.42-2.05A8.71,8.71,0,0,1,17.55,21Z"/><path class="cls-1" d="M37.46,27.26h0a3.48,3.48,0,0,0-4.9,0l-4,3.87A1.75,1.75,0,0,0,31,33.64l2.29-2.19V35a3.5,3.5,0,0,1-3.5,3.5h-3.5a1.75,1.75,0,0,0,0,3.5h3.5a7,7,0,0,0,7-7V31.44L39,33.64a1.75,1.75,0,0,0,2.42-2.53Z"/></g></g></svg>