<svg xmlns="http://www.w3.org/2000/svg" viewBox="0 0 35 42"><defs><style>.cls-1{fill:#f2b705;}.cls-2{fill:#1e2a38;}</style></defs><g id="Layer_2" data-name="Layer 2"><g id="Layer_3" data-name="Layer 3"><path class="cls-1" d="M16,21.86,12,17.76,9.49,20.18l4,4.2a3.25,3.25,0,0,0,2.35,1.05h.06a3.23,3.23,0,0,0,2.34-1l9.21-9.19L25,12.79Z"/><path class="cls-2" d="M31.4,4.61,17.5,0,3.6,4.61a5.25,5.25,0,0,0-3.6,5V21C0,34.15,16.1,41.42,16.79,41.73l.62.27.64-.21c.7-.23,17-5.8,17-20.81V9.59A5.25,5.25,0,0,0,31.4,4.61ZM18.28,24.46a3.23,3.23,0,0,1-2.34,1h-.06a3.25,3.25,0,0,1-2.35-1.05l-4-4.2L12,17.76,16,21.86,25,12.79l2.48,2.48Z"/></g></g></svg>