<svg xmlns="http://www.w3.org/2000/svg" viewBox="0 0 26.88 41.72"><defs><style>.cls-1{fill:#1e2a38;stroke:#f2b705;stroke-miterlimit:10;stroke-width:2px;}</style></defs><g id="Layer_2" data-name="Layer 2"><g id="Layer_3" data-name="Layer 3"><path class="cls-1" d="M25,16.89a3,3,0,0,0-2.1-.86H14.19L18.73,4a2.23,2.23,0,0,0,.14-.77A2.2,2.2,0,0,0,16.66,1h-7A3,3,0,0,0,6.84,3.09L1.13,21.88a2.8,2.8,0,0,0-.13.86,3,3,0,0,0,3,3H14.56l-4,13.17a1.41,1.41,0,0,0,.78,1.7,1.61,1.61,0,0,0,.69.16,1.43,1.43,0,0,0,1.21-.67L25.37,20.64A3,3,0,0,0,25,16.89Z"/></g></g></svg>