<svg xmlns="http://www.w3.org/2000/svg" viewBox="0 0 42 42"><defs><style>.cls-1{fill:#f2b705;}.cls-2{fill:#1e2a38;stroke:#1e2a38;stroke-miterlimit:10;}</style></defs><g id="Layer_2" data-name="Layer 2"><g id="Layer_3" data-name="Layer 3"><path class="cls-1" d="M21,0A21,21,0,1,0,42,21,21,21,0,0,0,21,0Z"/><path class="cls-2" d="M13,29.65a1.12,1.12,0,0,1-.77-.35,1.1,1.1,0,0,1,0-1.56l15.9-15.08a1.1,1.1,0,0,1,1.52,1.6L13.81,29.34A1.14,1.14,0,0,1,13,29.65Zm5.91-14.24a3.32,3.32,0,1,0-3.4,3.23A3.33,3.33,0,0,0,18.93,15.41ZM29.71,26.77A3.32,3.32,0,1,0,26.3,30,3.34,3.34,0,0,0,29.71,26.77Z"/></g></g></svg>