<svg xmlns="http://www.w3.org/2000/svg" viewBox="0 0 42.92 34.72"><defs><style>.cls-1{fill:#1e2a38;stroke:#1e2a38;}.cls-1,.cls-2{stroke-miterlimit:10;}.cls-2{fill:#f2b705;stroke:#f2b705;}</style></defs><g id="Layer_2" data-name="Layer 2"><g id="Layer_3" data-name="Layer 3"><path class="cls-1" d="M42.42,25.87l-13.37,8c0-8.57,0-14.81,0-15.1a.53.53,0,0,1,.07-.3.74.74,0,0,1,.29-.26L42,10.89l.42-.25Z"/><path class="cls-1" d="M26.21,33.85l-1.76-1c-3.72-2.15-7.45-4.31-11.19-6.45a1.57,1.57,0,0,0-.76-.2l-10.15,0a2.66,2.66,0,0,1-.8-.1,1.57,1.57,0,0,1-1-1.72A1.59,1.59,0,0,1,2,23c.43,0,.87,0,1.31,0,3.12,0,6.25,0,9.37,0a1.48,1.48,0,0,0,1.46-2A1.3,1.3,0,0,0,12.78,20H6.52a1.63,1.63,0,0,1-1.68-1.22,1.58,1.58,0,0,1,1.54-2H11.3a1.42,1.42,0,0,0,1.5-1.76,1.32,1.32,0,0,0-1.45-1.2H2.27a1.61,1.61,0,0,1-1.64-1,1.58,1.58,0,0,1,1.5-2.19h7.94c.59,0,1.18,0,1.76,0a3.52,3.52,0,0,1,2.11.56c4,2.32,8,4.61,11.93,6.9a.78.78,0,0,1,.3.26.6.6,0,0,1,.07.29C26.23,19,26.22,25.26,26.21,33.85Z"/><path class="cls-2" d="M28,15.78a.76.76,0,0,1-.37.11.8.8,0,0,1-.37-.11Q21,12.11,14.63,8.47l-.39-.24,1.46-.85,4.92-2.84c.08,0,.2-.08.24-.15s.22-.32.18-.44a.49.49,0,0,0-.38-.26c-.55,0-1.09,0-1.64,0A1.6,1.6,0,1,1,19,.5h8.31a1.36,1.36,0,0,1,.5.11c4.1,1,10,5.16,13.07,7.54C33.58,12.47,28.27,15.6,28,15.78Z"/><path class="cls-1" d="M8.6,3.68H3.81A1.58,1.58,0,0,1,2.26,2.41,1.55,1.55,0,0,1,3.12.68,1.93,1.93,0,0,1,3.91.51h9.44A1.61,1.61,0,0,1,15,2.08a1.59,1.59,0,0,1-1.7,1.6Z"/></g></g></svg>