<svg xmlns="http://www.w3.org/2000/svg" viewBox="0 0 36.75 42"><defs><style>.cls-1{fill:#1e2a38;}.cls-2{fill:#f2b705;}</style></defs><g id="Layer_2" data-name="Layer 2"><g id="Layer_3" data-name="Layer 3"><path class="cls-1" d="M15.37,7.26h0L13.72,3.9A7,7,0,0,0,7.44,0h-4A3.45,3.45,0,0,0,.53,1.64,3.48,3.48,0,0,0,.36,5l4,8.06A19.13,19.13,0,0,1,15.37,7.26Z"/><path class="cls-1" d="M36.22,1.64a3.46,3.46,0,0,0-3-1.64h-4A7,7,0,0,0,23,3.9L21.34,7.25A19.23,19.23,0,0,1,32.4,13.11l4-8.09h0A3.48,3.48,0,0,0,36.22,1.64Z"/><path class="cls-2" d="M24.41,24.09H20.67l-1-3.81a1.37,1.37,0,0,0-1.32-1,1.39,1.39,0,0,0-1.32,1l-1,3.81H12.3a1.18,1.18,0,0,0-1.22,1.13A1.73,1.73,0,0,0,12,26.66l2.61,1.45-1.16,3.16a1.48,1.48,0,0,0,2.29,1.67l2.59-2,2.6,2a1.48,1.48,0,0,0,2.29-1.67l-1.16-3.16,2.61-1.45a1.73,1.73,0,0,0,.94-1.44A1.18,1.18,0,0,0,24.41,24.09Z"/><path class="cls-1" d="M34.1,26.25A15.75,15.75,0,1,0,18.36,42,15.76,15.76,0,0,0,34.1,26.25Zm-9.41.41-2.61,1.45,1.16,3.16A1.48,1.48,0,0,1,21,32.94l-2.6-2-2.59,2a1.48,1.48,0,0,1-2.29-1.67l1.16-3.16L12,26.66a1.73,1.73,0,0,1-.94-1.44,1.18,1.18,0,0,1,1.22-1.13H16l1-3.81a1.39,1.39,0,0,1,1.32-1,1.37,1.37,0,0,1,1.32,1l1,3.81h3.74a1.18,1.18,0,0,1,1.22,1.13A1.73,1.73,0,0,1,24.69,26.66Z"/></g></g></svg>